<?xml version="1.0" encoding="UTF-8"?>
<svg width="587px" height="194px" viewBox="0 0 587 194" version="1.1" xmlns="http://www.w3.org/2000/svg" xmlns:xlink="http://www.w3.org/1999/xlink">
    <!-- Generator: Sketch 56.3 (81716) - https://sketch.com -->
    <title>Group</title>
    <desc>Created with Sketch.</desc>
    <g id="KNOW-Logos" stroke="none" stroke-width="1" fill="none" fill-rule="evenodd">
        <g id="Rectangle_02" transform="translate(-131.000000, -88.000000)" fill="#22AC9F" fill-rule="nonzero">
            <g id="Group" transform="translate(131.000000, 88.000000)">
                <g id="Group-Copy">
                    <path d="M93.2578825,193.028011 C81.5398863,193.028011 66.8923911,189.459426 53.0586456,182.484464 C52.0821459,181.997839 52.0821459,181.997839 52.8958956,181.186797 C56.4763944,178.104837 59.2431435,174.374043 61.1961429,169.994416 C61.3588929,169.507791 61.6843927,169.345583 62.1726426,169.669999 C69.4963902,173.238584 77.1456377,175.509502 85.1203851,176.644961 C92.2813828,177.78042 99.6051304,177.78042 106.766128,176.969378 C119.623374,175.509502 131.50412,171.129875 142.245617,163.992705 C160.799111,151.340449 172.517107,134.146357 176.748605,112.086013 C180.166354,94.7297129 177.887855,78.0222464 170.401357,61.9636135 C170.075858,61.3147799 170.238607,61.1525715 170.889607,60.8281547 C175.283856,59.0438621 179.027105,56.2863191 182.119354,52.5555256 C182.607603,52.0689004 182.770353,51.906692 183.095853,52.5555256 C187.815602,61.6391967 190.907851,71.3717015 192.53535,81.428623 C193.83735,90.0256689 194.16285,98.4605063 193.18635,107.057552 C190.907851,127.820229 182.607603,146.14978 168.448358,161.559579 C155.591112,175.671711 139.804367,185.079799 121.413623,189.783843 C113.764376,191.892552 105.138629,193.028011 93.2578825,193.028011 Z" id="Shape"></path>
                    <path d="M11.557409,141.445736 C-4.88033562,111.599388 -5.53133541,65.694407 25.7166544,31.6306404 C57.941144,-3.40637666 106.928878,-7.29937856 141.920117,11.3545889 C141.920117,11.5167973 141.594617,11.6790057 141.431867,11.8412141 C137.688618,14.9231739 134.759119,18.6539674 132.96887,23.195803 C132.64337,23.8446366 132.48062,23.8446366 131.82962,23.6824282 C123.854873,19.9516347 115.554625,17.3563001 106.928878,16.3830497 C84.3066354,13.9499235 63.962892,19.4650095 46.2231478,33.7393498 C31.0874027,45.7427723 21.4851558,61.4769883 17.5791571,80.4553726 C13.9986582,97.9738811 16.1144076,115.005764 23.7636551,131.226606 C24.089155,132.037648 24.089155,132.199856 23.2754052,132.524273 C18.8811567,134.308565 14.9751579,137.228317 12.0456589,140.95911 C11.720159,141.121319 11.720159,141.283527 11.557409,141.445736 Z" id="Shape"></path>
                    <path d="M132.560518,130.41256 L131.258519,130.41256 L117.099273,130.41256 C116.448273,130.41256 116.122774,130.250351 115.797274,129.763726 C108.799026,120.355638 101.963528,110.94755 94.9652804,101.377254 C94.4770306,100.72842 94.3142806,100.72842 93.6632808,101.377254 C90.4082819,104.945839 87.153283,108.514424 83.898284,112.083009 C83.5727841,112.407426 83.4100342,112.894051 83.4100342,113.380676 L83.4100342,129.601518 C83.4100342,130.250351 83.2472842,130.574768 82.5962844,130.574768 L70.7155383,130.574768 C70.0645385,130.574768 69.9017886,130.41256 69.9017886,129.763726 L69.9017886,61.6361929 C69.9017886,60.9873592 70.0645385,60.8251508 70.7155383,60.8251508 L82.5962844,60.8251508 C83.4100342,60.8251508 83.4100342,61.1495676 83.4100342,61.7984013 L83.4100342,94.2400838 L83.4100342,95.2133342 C83.7355341,95.2133342 83.898284,94.8889174 84.061034,94.726709 C94.1515307,83.5343285 104.242027,72.5041565 114.332524,61.311776 C114.495274,60.9873592 114.820774,60.8251508 115.146274,60.8251508 L130.282019,60.8251508 L130.444769,60.8251508 C130.444769,61.1495676 130.282019,61.1495676 130.119269,61.311776 C121.493522,70.719864 112.867775,80.2901603 104.242027,89.6982482 C103.753778,90.1848734 103.916528,90.5092903 104.242027,90.9959155 C113.356024,103.972589 122.632771,116.787053 131.746768,129.763726 C132.072268,129.763726 132.235018,129.925934 132.560518,130.41256 Z" id="Shape"></path>
                    <ellipse id="Oval" cx="34.3424016" cy="159.126453" rx="22.2967428" ry="22.0603441"></ellipse>
                    <ellipse id="Oval" cx="159.659861" cy="34.225975" rx="22.1339928" ry="22.2225525"></ellipse>
                </g>
                <path d="M263.26,89.9 L266.5675,89.9 C267.897507,89.9 268.999996,89.7162518 269.875,89.34875 C270.750004,88.9812482 271.502497,88.395004 272.1325,87.59 L293.08,61.0775 C293.955004,59.9574944 294.873745,59.1787522 295.83625,58.74125 C296.798755,58.3037478 298.014993,58.085 299.485,58.085 L311.665,58.085 L286.0975,89.6375 C285.292496,90.6175049 284.522504,91.4399967 283.7875,92.105 C283.052496,92.7700033 282.265004,93.3124979 281.425,93.7325 C282.580006,94.1525021 283.621245,94.7474962 284.54875,95.5175 C285.476255,96.2875039 286.377496,97.2674941 287.2525,98.4575 L313.6075,134 L301.1125,134 C299.432492,134 298.181254,133.763752 297.35875,133.29125 C296.536246,132.818748 295.845003,132.127505 295.285,131.2175 L273.8125,103.1825 C273.112497,102.272495 272.325004,101.616252 271.45,101.21375 C270.574996,100.811248 269.332508,100.61 267.7225,100.61 L263.26,100.61 L263.26,134 L249.1375,134 L249.1375,58.0325 L263.26,58.0325 L263.26,89.9 Z M329.3575,58.085 C329.987503,58.085 330.512498,58.1112497 330.9325,58.16375 C331.352502,58.2162503 331.728748,58.3212492 332.06125,58.47875 C332.393752,58.6362508 332.717498,58.8637485 333.0325,59.16125 C333.347502,59.4587515 333.697498,59.8524976 334.0825,60.3425 L373.93,111.11 C373.789999,109.884994 373.69375,108.686256 373.64125,107.51375 C373.58875,106.341244 373.5625,105.247505 373.5625,104.2325 L373.5625,58.085 L386.005,58.085 L386.005,134 L378.7075,134 C377.587494,134 376.660004,133.825002 375.925,133.475 C375.189996,133.124998 374.472504,132.495005 373.7725,131.585 L334.0825,81.0275 C334.187501,82.1475056 334.26625,83.2587445 334.31875,84.36125 C334.37125,85.4637555 334.3975,86.4699954 334.3975,87.38 L334.3975,134 L321.955,134 L321.955,58.085 L329.3575,58.085 Z M474.1525,96.0425 C474.1525,101.607528 473.225009,106.761226 471.37,111.50375 C469.514991,116.246274 466.907517,120.349983 463.5475,123.815 C460.187483,127.280017 456.145024,129.98374 451.42,131.92625 C446.694976,133.86876 441.462529,134.84 435.7225,134.84 C429.982471,134.84 424.741274,133.86876 419.99875,131.92625 C415.256226,129.98374 411.196267,127.280017 407.81875,123.815 C404.441233,120.349983 401.825009,116.246274 399.97,111.50375 C398.114991,106.761226 397.1875,101.607528 397.1875,96.0425 C397.1875,90.4774722 398.114991,85.3237737 399.97,80.58125 C401.825009,75.8387263 404.441233,71.7350173 407.81875,68.27 C411.196267,64.8049827 415.256226,62.1012597 419.99875,60.15875 C424.741274,58.2162403 429.982471,57.245 435.7225,57.245 C441.462529,57.245 446.694976,58.2249902 451.42,60.185 C456.145024,62.1450098 460.187483,64.8487328 463.5475,68.29625 C466.907517,71.7437672 469.514991,75.8387263 471.37,80.58125 C473.225009,85.3237737 474.1525,90.4774722 474.1525,96.0425 Z M459.6625,96.0425 C459.6625,91.8774792 459.111256,88.1412665 458.00875,84.83375 C456.906244,81.5262335 455.32251,78.7175116 453.2575,76.4075 C451.19249,74.0974885 448.681265,72.3300061 445.72375,71.105 C442.766235,69.8799939 439.432519,69.2675 435.7225,69.2675 C432.012481,69.2675 428.670015,69.8799939 425.695,71.105 C422.719985,72.3300061 420.19126,74.0974885 418.10875,76.4075 C416.02624,78.7175116 414.425006,81.5262335 413.305,84.83375 C412.184994,88.1412665 411.625,91.8774792 411.625,96.0425 C411.625,100.207521 412.184994,103.943733 413.305,107.25125 C414.425006,110.558767 416.02624,113.358739 418.10875,115.65125 C420.19126,117.943761 422.719985,119.702494 425.695,120.9275 C428.670015,122.152506 432.012481,122.765 435.7225,122.765 C439.432519,122.765 442.766235,122.152506 445.72375,120.9275 C448.681265,119.702494 451.19249,117.943761 453.2575,115.65125 C455.32251,113.358739 456.906244,110.558767 458.00875,107.25125 C459.111256,103.943733 459.6625,100.207521 459.6625,96.0425 Z M478.2475,58.085 L490.1125,58.085 C491.337506,58.085 492.361246,58.3737471 493.18375,58.95125 C494.006254,59.5287529 494.557499,60.3074951 494.8375,61.2875 L507.7525,106.7 C508.067502,107.820006 508.356249,109.036243 508.61875,110.34875 C508.881251,111.661257 509.134999,113.052493 509.38,114.5225 C509.660001,113.052493 509.966248,111.661257 510.29875,110.34875 C510.631252,109.036243 510.989998,107.820006 511.375,106.7 L526.285,61.2875 C526.565001,60.482496 527.116246,59.7475033 527.93875,59.0825 C528.761254,58.4174967 529.767494,58.085 530.9575,58.085 L535.105,58.085 C536.330006,58.085 537.344996,58.3737471 538.15,58.95125 C538.955004,59.5287529 539.514998,60.3074951 539.83,61.2875 L554.635,106.7 C555.405004,108.940011 556.069997,111.424986 556.63,114.155 C556.875001,112.789993 557.128749,111.477506 557.39125,110.2175 C557.653751,108.957494 557.924999,107.785005 558.205,106.7 L571.12,61.2875 C571.365001,60.4124956 571.907496,59.6600032 572.7475,59.03 C573.587504,58.3999969 574.602494,58.085 575.7925,58.085 L586.87,58.085 L563.2975,134 L550.54,134 L533.95,82.13 C533.739999,81.4649967 533.521251,80.7475038 533.29375,79.9775 C533.066249,79.2074961 532.847501,78.3850044 532.6375,77.51 C532.427499,78.3850044 532.208751,79.2074961 531.98125,79.9775 C531.753749,80.7475038 531.535001,81.4649967 531.325,82.13 L514.5775,134 L501.82,134 L478.2475,58.085 Z" id="KNOW"></path>
            </g>
        </g>
    </g>
</svg>